PathFileType	4	(X/Y/Z)	c:/Users/goper/Files/vsCode/490R/osim_files/A03/A03_Fast_06.trc
DataRate	CameraRate	NumFrames	NumMarkers	Units                	OrigDataRate	OrigDataStartFrame	OrigNumFrames
250.00	250.00	11	36	mm	250.0	805	2145
                Frame#	Time	LPSIS			LASIS			LTH1			LTH2			LTH3			LTH4			LLFE			LMFE			LSH1			LSH2			LSH3			LSH4			LLMAL			LMMAL			LCAL			LMTP5			LTOE			LMTP1			RPSIS			RASIS			RTH1			RTH2			RTH3			RTH4			RLFE			RMFE			RSH1			RSH2			RSH3			RSH4			RLMAL			RMMAL			RCAL			RMTP1			RTOE			RMTP5		
		X1	Y1	Z1	X2	Y2	Z2	X3	Y3	Z3	X4	Y4	Z4	X5	Y5	Z5	X6	Y6	Z6	X7	Y7	Z7	X8	Y8	Z8	X9	Y9	Z9	X10	Y10	Z10	X11	Y11	Z11	X12	Y12	Z12	X13	Y13	Z13	X14	Y14	Z14	X15	Y15	Z15	X16	Y16	Z16	X17	Y17	Z17	X18	Y18	Z18	X19	Y19	Z19	X20	Y20	Z20	X21	Y21	Z21	X22	Y22	Z22	X23	Y23	Z23	X24	Y24	Z24	X25	Y25	Z25	X26	Y26	Z26	X27	Y27	Z27	X28	Y28	Z28	X29	Y29	Z29	X30	Y30	Z30	X31	Y31	Z31	X32	Y32	Z32	X33	Y33	Z33	X34	Y34	Z34	X35	Y35	Z35	X36	Y36	Z36

805	3.21600	834.67401	1069.91492	274.20905	591.92957	978.31439	384.70639	589.04346	630.00073	430.38840	572.16187	590.21777	430.91602	533.63916	646.42993	410.91953	526.40686	603.31915	412.72159	566.75061	541.57874	421.48135	561.96069	542.97363	264.80121	618.14478	461.28430	419.87259	620.95428	412.78268	414.75623	558.17810	449.76556	407.78583	572.38953	404.59332	401.07327	662.99005	94.11343	360.98322	663.88312	105.15820	263.71307	736.98785	82.89597	314.62589	513.13208	38.46477	355.03607	491.41870	70.40768	283.69189	526.80298	50.21799	242.21335	837.89880	1076.97766	191.32549	601.67950	981.21613	86.67981	612.02161	629.95447	5.37896	608.48688	586.40808	8.08192	549.79883	630.58838	4.68206	554.01801	587.12512	7.65390	583.75757	551.85834	20.43313	542.12823	550.60065	142.88368	656.74579	543.15967	21.39470	688.92938	516.34644	12.87882	622.03210	490.28549	20.25074	661.21759	467.96011	14.73075	923.21552	323.81082	89.00947	0.00000	0.00000	0.00000	981.83258	351.16418	145.95601	899.58710	152.10870	194.41611	868.27521	140.76752	146.79185	919.87347	145.86958	81.25549
806	3.22000	829.24243	1070.59924	274.74896	587.35632	978.84088	385.03391	586.68243	630.08600	430.34180	569.98761	590.02527	431.01199	530.98840	645.93573	411.10236	524.07983	602.75159	412.85745	564.81458	541.36737	421.50980	558.87415	543.48419	264.79538	616.51117	461.27985	419.92349	619.48950	412.78769	414.79953	556.61945	449.52576	407.80908	570.94641	404.41351	401.10495	662.87787	94.22693	361.02261	662.59998	104.41900	263.02289	736.83960	83.06279	314.60501	513.04883	38.41342	355.02155	490.97745	70.18845	283.71945	526.70233	50.10897	242.21501	832.39032	1077.42676	191.54106	595.87500	982.37744	86.88008	602.89240	631.41284	5.97226	598.19727	588.39587	8.78013	541.12860	632.94385	5.68574	544.41888	589.18231	8.48596	573.50861	553.36768	21.17873	532.52966	552.82904	143.77592	646.72858	543.94629	21.83489	678.97614	516.99298	13.11080	610.39526	491.00391	21.28046	650.36554	468.80191	15.24067	910.72809	321.05350	89.06574	0.00000	0.00000	0.00000	970.08252	347.73364	145.57253	884.39252	150.63571	195.67896	852.81323	139.45326	148.13521	904.49359	143.04674	82.51292
807	3.22400	824.12152	1071.34204	275.15164	581.73700	979.01727	385.02133	584.09729	629.87659	430.65497	567.54541	589.95782	431.51712	528.38239	645.41327	411.28323	521.59924	601.70135	412.83603	562.96350	541.16901	421.56406	556.14948	543.70795	264.74213	614.92004	461.26282	419.95200	618.06140	412.79211	414.80899	555.03894	449.29807	407.81696	569.55365	404.20044	401.07779	662.75006	94.30909	361.03937	663.62457	105.34671	263.68420	736.77045	83.27957	314.61679	513.00568	38.33419	355.01761	491.22742	70.18098	283.64136	526.67847	50.03626	242.18881	826.93695	1077.86279	191.70778	590.10345	983.49261	87.11937	593.84375	632.85809	6.57022	589.09332	590.03937	9.44790	533.87714	636.15094	5.31547	534.85510	591.25824	9.37890	566.91431	557.87317	21.18782	522.92883	555.11072	144.70996	636.85345	544.66492	22.33846	668.65375	517.28809	13.54550	600.62982	493.23376	22.25347	639.44122	469.26364	15.64527	898.15723	318.04822	89.08232	0.00000	0.00000	0.00000	958.04474	343.60266	145.48965	868.86115	148.90211	196.82942	837.34021	137.70813	149.55183	888.80060	140.07468	83.73946
808	3.22800	818.34723	1071.96667	275.48001	576.39941	979.25574	385.19003	581.55090	629.73059	430.73944	565.39069	589.69354	431.57831	525.76691	644.90045	411.38876	519.34650	601.16431	412.89136	561.07166	540.94135	421.52222	554.26910	543.51904	264.67172	613.38843	461.25690	419.92603	616.72754	412.81119	414.82623	553.56903	449.05539	407.87479	568.24963	404.00763	401.12244	662.62305	94.41653	361.03790	662.66132	105.24397	263.38507	736.64221	83.42601	314.61548	512.96387	38.26884	354.99103	490.80075	69.96532	283.64297	526.57306	49.98066	242.17879	821.44019	1078.33508	191.85492	584.25879	984.66174	87.33784	584.87524	634.25861	7.21281	580.17059	591.58118	10.12412	522.95782	637.06415	7.56461	524.74951	593.28210	10.32194	557.19556	559.57013	21.96798	513.45221	557.35944	145.59038	627.01465	545.34381	22.87181	658.44672	517.49725	14.01207	590.80585	494.61023	22.77178	628.56598	469.86514	16.29260	885.46301	314.82587	89.10761	0.00000	0.00000	0.00000	946.27533	339.85593	144.81627	854.02368	147.77609	198.48485	821.01715	136.22069	150.66063	872.79547	136.93652	84.83440
809	3.23200	812.98889	1072.64307	275.65942	571.85449	979.63910	385.77280	579.17029	629.71204	430.55838	563.20270	589.39325	431.58777	523.20557	644.35614	411.51569	517.15601	600.52094	413.00241	559.31885	540.76379	421.52496	552.41174	543.30194	264.70914	611.81635	461.23306	419.93851	615.30371	412.79541	414.84201	552.03851	448.80191	407.83371	566.91882	403.85672	401.09619	662.52209	94.52203	361.04114	662.51593	105.32735	263.39673	736.56476	83.60259	314.61673	512.91028	38.22609	354.96359	490.71472	69.89960	283.63266	526.52679	49.91365	242.12758	815.99390	1078.76208	191.96233	578.46667	985.72528	87.64020	575.97870	635.68225	7.85772	570.85760	593.06238	10.81944	514.13330	639.07721	8.45605	515.49188	595.29376	11.26597	547.52069	561.32208	22.78748	504.12967	559.55359	146.54819	617.35083	545.92401	23.43698	648.32709	517.59308	14.54313	579.71515	495.51181	23.81773	617.81360	470.46841	16.97964	872.58490	311.36179	89.12924	0.00000	0.00000	0.00000	934.16663	335.38095	144.46434	837.51184	145.19328	199.53659	804.70551	134.39526	151.78893	856.50806	133.68643	85.87099
810	3.23600	807.63641	1073.29565	275.73819	566.82892	979.76251	386.21613	576.79016	629.60278	430.64746	561.05554	589.08917	431.61774	520.67426	643.76685	411.65225	514.97205	599.89819	413.03574	557.52551	540.55353	421.50964	550.58960	543.02112	264.67200	610.31635	461.21255	419.92105	614.02026	412.78232	414.83502	550.63666	448.59354	407.80725	565.65497	403.64157	401.10272	662.39618	94.60513	361.09512	662.42334	105.38419	263.35764	736.42389	83.72570	314.65240	512.86542	38.16489	354.95306	490.62122	69.75407	283.64105	526.45898	49.83985	242.12505	809.80072	1078.88159	191.90962	572.59937	986.78961	87.93518	567.46301	637.21753	8.49446	561.58179	594.47675	11.54350	504.75143	640.90997	9.50182	506.26645	597.30945	12.24879	535.37756	561.66980	24.50682	494.81134	561.75604	147.47998	607.47198	546.26794	24.20099	638.27875	517.63116	15.11976	569.34698	496.63885	24.65573	607.10822	470.97449	17.68899	859.60669	307.68033	89.14185	0.00000	0.00000	0.00000	922.02832	330.64200	144.45702	821.42822	143.04616	200.62195	788.16864	132.44937	152.83707	839.89307	130.34885	86.79079
811	3.24000	802.33679	1073.86194	275.73099	561.68756	979.95471	386.57858	574.42090	629.47235	430.71237	558.95264	588.77100	431.63586	518.18665	643.22406	411.74133	513.25079	599.46021	413.31583	555.73041	540.36102	421.52090	548.87146	542.75360	264.62686	608.83118	461.20453	419.90558	612.68707	412.78253	414.81754	549.15594	448.33423	407.78458	564.39294	403.49719	401.06851	662.28204	94.71291	361.14108	662.27612	105.47495	263.37405	736.32715	83.85686	314.65710	512.82739	38.12086	354.95950	490.52484	69.64080	283.60974	525.96582	49.56173	242.27654	804.37250	1079.32800	191.96048	566.65112	987.86047	88.26295	559.78931	638.91925	8.77055	552.32880	595.84259	12.30487	496.57278	642.99292	10.46671	497.11121	599.26013	13.29655	526.80170	563.67029	25.28042	485.77008	563.86230	148.44014	598.70996	546.98553	24.97264	628.26929	517.52643	15.76792	558.31287	497.62762	25.54275	596.38757	471.39902	18.44906	846.40979	303.79581	89.18703	0.00000	0.00000	0.00000	909.57703	325.55536	144.23219	804.88397	140.63335	201.50839	772.17194	130.29057	153.92924	822.97992	126.90602	87.67840
812	3.24400	797.10590	1074.36841	275.62219	556.65277	980.03967	387.01971	572.03229	629.32697	430.96674	556.81653	588.46967	431.59607	515.68170	642.65491	411.82971	510.66934	598.69543	413.14377	553.94458	540.12665	421.41357	547.12640	542.51874	264.58334	607.35034	461.18723	419.86798	611.35693	412.78842	414.81778	547.74341	448.08530	407.75293	563.10065	403.34442	401.09534	662.12549	94.78805	361.13419	662.12622	105.52811	263.36621	735.26825	83.27898	314.16174	512.74335	38.06725	354.94427	490.43631	69.60025	283.59247	525.93262	49.53923	242.22629	799.67761	1080.08142	192.04678	560.77991	988.84070	88.57123	551.49884	640.27563	9.24337	543.21490	597.18671	13.12774	488.02576	644.84564	11.51985	488.12863	601.17841	14.35304	517.45172	565.28705	26.28138	476.80652	565.89471	149.42976	589.57605	547.43518	25.60081	618.66364	517.49542	16.69034	547.96106	498.31915	26.81361	585.72736	471.80579	19.19172	833.09454	299.77148	89.18229	0.00000	0.00000	0.00000	897.05170	320.20923	143.93378	788.07550	138.00255	202.34381	754.31622	128.36391	154.71426	805.81348	123.39144	88.42128
813	3.24800	791.88593	1074.85364	275.50812	551.72504	980.21442	387.59579	569.59766	629.23431	430.69489	554.74194	588.19049	431.55984	513.25458	642.10577	411.90512	508.59436	598.12299	413.16602	552.30157	539.99091	421.40219	545.40887	542.22906	264.56082	605.92206	461.18558	419.81534	610.10382	412.79837	414.78674	546.37213	447.86511	407.71317	561.89062	403.19028	401.03555	662.01306	94.90606	361.15634	661.97662	105.61237	263.32785	736.34186	83.93387	314.46841	512.68738	38.02625	354.91330	490.30844	69.47552	283.58337	525.87347	49.47346	242.22197	794.29828	1080.52356	191.99947	554.84717	989.80518	88.96419	543.45923	641.62256	9.66167	534.22760	598.54144	13.98685	479.50381	646.72205	12.55211	479.23160	603.02838	15.45743	508.25372	566.84393	27.27040	468.03555	567.98193	150.49335	580.29529	547.73138	26.34081	609.24139	517.33331	17.27413	537.85083	499.36111	27.73552	575.10034	472.06934	20.07020	819.54266	295.52185	89.21345	0.00000	0.00000	0.00000	884.26276	314.56119	143.53336	771.70380	135.79872	203.10086	737.04663	126.06332	155.57686	788.23779	119.83758	89.08698
814	3.25200	786.70367	1075.27271	275.32751	547.17352	980.31842	388.13458	567.30902	629.13324	430.72885	552.70563	587.90875	431.53192	510.84003	641.53674	411.96164	506.52075	597.51099	413.17661	550.65601	539.79608	421.29968	543.74060	541.93781	264.47452	604.48596	461.15817	419.75388	608.84064	412.81659	414.73724	545.04358	447.66425	407.67032	560.66046	403.05066	400.98355	661.89941	95.00906	361.18781	661.86426	105.71041	263.35037	736.25171	84.10869	314.51337	512.65302	37.99080	354.91519	490.27371	69.40874	283.53549	525.83691	49.43186	242.19843	788.92371	1080.97571	191.98959	555.90210	990.61163	91.98976	535.51117	643.00085	10.03214	525.32843	599.78107	14.86477	471.10730	648.49457	13.65113	470.41748	604.82861	16.61706	499.11133	568.38177	28.30704	459.39395	570.01288	151.52742	571.04688	547.89313	27.16762	599.42682	516.94568	17.98113	527.81329	500.35562	28.67497	564.49164	472.36636	20.90480	805.86359	291.18311	89.26064	0.00000	0.00000	0.00000	871.45123	308.82227	143.60623	754.50330	133.00694	203.83783	719.71899	124.53423	156.18559	771.55261	116.47321	89.87128
815	3.25600	781.57721	1075.65063	275.13391	541.91785	980.44220	388.61984	565.05200	628.97113	431.00232	550.70898	587.62268	431.47794	508.44330	640.97797	412.01630	504.46826	596.88416	413.18448	549.02026	539.61432	421.24887	542.14880	541.71185	264.37802	603.12317	461.15909	419.71295	607.64111	412.84317	414.67548	543.64935	447.44299	407.56189	559.48938	402.86667	400.90869	661.80438	95.10454	361.22470	661.75555	105.80239	263.31174	736.15216	84.29810	314.49716	512.64746	37.95723	354.90240	490.15723	69.31115	283.45520	525.75665	49.37620	242.19647	782.92096	1081.09949	191.85439	550.14154	991.48376	92.50990	527.89801	644.39532	10.31520	516.50629	601.03088	15.80512	462.75323	650.18036	14.81111	461.22894	606.38922	17.78341	490.02405	569.77679	29.40752	450.88501	572.01483	152.63550	561.91870	547.98529	28.00029	589.37402	516.36975	18.80581	517.83258	501.28323	29.65512	553.95709	472.56488	21.75188	791.97900	286.67975	89.32596	0.00000	0.00000	0.00000	858.32507	302.77356	143.52071	736.55261	129.58012	204.36292	702.17297	122.19274	156.73535	754.29895	112.48184	90.15504
